# xmcd
#
# Track frame offsets: 
#        150
#        20937
#        39765
#        59010
#        80927
#        94752
#        114405
#        133827
#        156470
#        172157
#
# Disc length: 2508 seconds
#
# Revision: 2
# Processed by: cddbd v1.5.2PL0 Copyright (c) Steve Scherf et al.
# Submitted via: ExactAudioCopy v0.99pb4
#
DISCID=9109ca0a
DTITLE=Marc Sadane - One-Way Love Affair
DYEAR=1981
DGENRE=Funk
TTITLE0=One-Way Love Affair
TTITLE1=You're The One For Me
TTITLE2=The Fool In Me
TTITLE3=Never Gonna Stop This Heart Of Mine
TTITLE4=Standing In The Shadows Of Love
TTITLE5=Sit Up
TTITLE6=Girl Come On (Let's Get It On)
TTITLE7=Love Can't Wait
TTITLE8=Midnight Love Dance
TTITLE9=Make Up Your Mind
EXTD=
EXTT0=
EXTT1=
EXTT2=
EXTT3=
EXTT4=
EXTT5=
EXTT6=
EXTT7=
EXTT8=
EXTT9=
PLAYORDER=
